<svg width="56" height="56" viewBox="0 0 56 56" fill="none" xmlns="http://www.w3.org/2000/svg">
<g clip-path="url(#clip0_272_20)">
<path d="M12.3438 6.5H28.875C32.3333 6.5 35.3021 7.02083 37.7812 8.0625C40.2604 9.10417 42.1667 10.6458 43.5 12.6875C44.8333 14.7292 45.5 17.2396 45.5 20.2188C45.5 22.5729 45.0833 24.6146 44.25 26.3438C43.4167 28.0729 42.2396 29.5208 40.7188 30.6875C39.2188 31.8542 37.4479 32.7708 35.4062 33.4375L32.7188 34.8125H18.125L18.0625 28.0312H28.9688C30.7396 28.0312 32.2083 27.7188 33.375 27.0938C34.5417 26.4688 35.4167 25.6042 36 24.5C36.6042 23.3958 36.9062 22.1354 36.9062 20.7188C36.9062 19.1979 36.6146 17.8854 36.0312 16.7812C35.4479 15.6562 34.5625 14.7917 33.375 14.1875C32.1875 13.5833 30.6875 13.2812 28.875 13.2812H20.9375V52H12.3438V6.5ZM38.0312 52L27.5 31.625L36.5938 31.5938L47.25 51.5625V52H38.0312Z" fill="#D6FF41"/>
<circle cx="29.5" cy="20.5" r="3.5" fill="#C1C1C1"/>
<path d="M15 53L15 6H21L21 53H15Z" fill="#171717"/>
</g>
<defs>
<clipPath id="clip0_272_20">
<rect width="56" height="56" fill="white"/>
</clipPath>
</defs>
</svg>
